<?xml version="1.0" standalone="no"?>
<!DOCTYPE svg PUBLIC "-//W3C//DTD SVG 20010904//EN"
 "http://www.w3.org/TR/2001/REC-SVG-20010904/DTD/svg10.dtd">
<svg version="1.0" xmlns="http://www.w3.org/2000/svg"
 width="445.000000pt" height="445.000000pt" viewBox="0 0 445.000000 445.000000"
 preserveAspectRatio="xMidYMid meet">
<metadata>
Created by potrace 1.14, written by Peter Selinger 2001-2017
</metadata>
<g transform="translate(0.000000,445.000000) scale(0.100000,-0.100000)"
fill="#000000" stroke="none">
<path d="M1885 4300 c-38 -5 -86 -11 -105 -15 -19 -3 -50 -8 -69 -11 -19 -2
-62 -11 -95 -20 -34 -9 -68 -17 -76 -19 -8 -2 -69 -22 -135 -45 -359 -125
-694 -361 -937 -660 -153 -187 -290 -439 -361 -660 -26 -81 -21 -66 -51 -190
-26 -106 -29 -126 -45 -255 -16 -132 -9 -388 14 -533 3 -20 8 -53 11 -72 33
-210 157 -523 289 -730 291 -458 742 -785 1265 -916 59 -15 154 -34 196 -40
27 -3 58 -8 69 -11 39 -9 391 -11 455 -2 36 4 90 11 120 15 30 3 58 8 61 10 3
2 21 6 40 9 159 26 409 120 589 221 143 79 367 208 390 224 8 6 24 14 35 19
11 5 61 36 110 68 218 144 375 363 441 618 35 134 41 333 14 457 -22 100 -51
186 -90 265 -15 32 -25 61 -22 64 4 4 99 60 212 124 113 65 211 123 218 130
10 9 -19 66 -143 280 -85 147 -155 270 -155 271 0 3 -57 101 -90 154 -5 8 -35
60 -66 115 -211 369 -413 593 -714 794 -47 32 -98 65 -115 73 -16 9 -55 29
-85 45 -190 99 -443 181 -646 209 -27 3 -58 8 -69 11 -36 8 -389 11 -460 3z
m1619 -1417 c85 -60 115 -179 68 -270 -77 -149 -295 -147 -368 3 -27 55 -31
88 -19 144 13 61 43 98 107 136 60 35 151 30 212 -13z"/>
</g>
</svg>
