<svg width="2048" height="2048" viewBox="0 0 2048 2048" fill="none" xmlns="http://www.w3.org/2000/svg">
<rect width="512" height="512" fill="black" fill-opacity="0" transform="scale(4)"/>
<rect width="512" height="512" fill="black" fill-opacity="0" transform="scale(4)"/>
<path fill-rule="evenodd" clip-rule="evenodd" d="M1295.6 553.229L1017.48 601.269L1017.11 711.907L1166.1 686.171L1165.66 1213.79L1055.26 1232.85L1017.14 1239.44L920.458 1256.14L920.998 839.081L649.972 885.895L649.598 996.534L791.023 972.105L790.856 1278.52L649.431 1302.95L649.448 1413.04L1016.68 1349.6L1054.81 1343.02L1437.18 1276.97L1437.63 1166.81L1295.26 1191.4L1295.6 553.229ZM522.052 837.36L727.805 801.821L728.488 690.155L188.8 783.375L188.59 894.959L391.978 859.828L391.477 1457.6L521.55 1435.13L522.052 837.36ZM1600.23 592.673L1600.13 721.775L1785.54 689.749L1785.26 789.654L1599.85 821.681L1601.97 1048.31C1602.74 1062.14 1604.57 1074.65 1607.48 1085.84C1610.7 1096.97 1615.41 1106.39 1621.61 1114.08C1628.13 1121.72 1636.4 1127.28 1646.41 1130.74C1656.74 1134.16 1669.35 1134.74 1684.22 1132.49C1702.62 1129.97 1720.56 1125.73 1738.04 1119.79C1755.53 1113.85 1772.93 1107.43 1790.25 1100.54L1810.27 1191.09C1800.01 1199.36 1788.77 1206.66 1776.55 1212.99C1764.65 1219.27 1752.1 1224.69 1738.93 1229.24C1726.06 1233.73 1712.91 1237.46 1699.46 1240.44C1686.06 1243.72 1673.03 1246.3 1660.36 1248.16C1631.61 1252.81 1605.99 1252.04 1583.49 1245.86C1561.25 1239.3 1542.19 1228.63 1526.32 1213.84C1510.77 1198.99 1498.48 1180.49 1489.46 1158.34C1480.7 1135.82 1475.39 1110.76 1473.55 1083.15L1471.66 843.822L1358.15 863.43L1358.42 763.524L1471.94 743.916L1472.05 614.814L1600.23 592.673ZM911.997 680.96C892.203 646.676 848.364 634.929 814.08 654.723C779.796 674.517 768.049 718.356 787.843 752.64C807.637 786.924 851.476 798.67 885.76 778.877L901.279 769.917C918.421 760.02 924.294 738.1 914.397 720.958L929.917 711.998L911.997 680.96ZM900.062 696.128C902.041 699.556 900.866 703.94 897.438 705.919C894.009 707.899 889.625 706.724 887.646 703.296C885.667 699.867 886.841 695.483 890.27 693.504C893.698 691.524 898.082 692.699 900.062 696.128Z" fill="#C81753"/>
<path d="M235.646 1595.92L189.628 1603.21L189.691 1736.16L235.71 1728.87L235.646 1595.92ZM212.799 1522.04C198.64 1524.28 186.828 1538.07 186.795 1552.59C187.015 1567.07 198.466 1577.18 212.625 1574.94C226.785 1572.7 238.596 1558.9 238.376 1544.42C238.409 1529.9 226.959 1519.79 212.799 1522.04ZM311.945 1583.83L265.927 1591.12L265.99 1724.08L312.009 1716.79L312.058 1653.28C312.051 1638.5 312.107 1615.95 332.587 1612.7C353.068 1609.46 353.012 1632.02 353.019 1646.79L352.97 1710.3L398.988 1703.01L399.038 1639.5C398.871 1623.72 399.752 1603.1 420.992 1599.74C440.461 1596.65 439.899 1619.29 439.999 1633.01L439.95 1696.52L485.968 1689.23L486.021 1604.47C485.846 1573.91 474.604 1553.66 441.734 1558.87C424.034 1561.67 406.685 1573.23 397.617 1591.26C388.32 1575.11 372.201 1569.88 353.49 1572.85C336.802 1575.49 323.351 1583.84 312.485 1600.33L311.98 1600.42L311.945 1583.83ZM560.56 1544.46L514.542 1551.74L514.49 1751.07L560.509 1743.78L560.684 1664.7C570.577 1674.8 585.831 1677.82 600.749 1675.46C639.182 1669.37 665.822 1633.02 665.71 1594.67C665.892 1556.54 639.021 1527.62 600.335 1533.75C585.164 1536.15 569.437 1544.86 561.113 1559.4L560.607 1559.48L560.56 1544.46ZM588.71 1576.54C607.421 1573.58 618.393 1585.58 618.388 1601.91C618.209 1618.78 607.316 1633.47 588.606 1636.43C569.895 1639.4 559.043 1628.16 559.221 1611.28C559.227 1594.95 569.999 1579.51 588.71 1576.54ZM734.429 1516.92L688.41 1524.21L688.474 1657.16L734.492 1649.87L734.546 1596.21C734.562 1573.4 740.729 1555.06 766.266 1551.01C773.346 1549.89 779.535 1549.69 785.911 1552.31L785.729 1506.98L776.88 1508.38C758.927 1511.22 743.867 1520.87 735.011 1538.6L734.506 1538.68L734.429 1516.92ZM867.137 1491.49C825.417 1498.1 788.926 1529.54 789.108 1574.87C789.036 1620.24 825.578 1639.85 867.045 1633.28C908.765 1626.68 945.256 1595.24 945.368 1550.12C945.186 1504.79 908.857 1484.88 867.137 1491.49ZM867.143 1532.44C885.854 1529.48 896.826 1541.48 896.821 1557.81C896.643 1574.68 885.75 1589.37 867.039 1592.33C848.328 1595.3 837.476 1584.06 837.654 1567.18C837.66 1550.85 848.433 1535.41 867.143 1532.44ZM1016.46 1511.13L1048.57 1506.04L1048.63 1467.15L1016.52 1472.24L1016.48 1450.73C1016.69 1435.67 1020.62 1427.79 1032.51 1425.9C1038.58 1424.94 1043.45 1426.24 1048.61 1427.76L1048.65 1387.06C1042.31 1384.69 1036.04 1384.39 1028.96 1385.51C1011.52 1388.28 994.978 1398.41 983.7 1413.94C971.064 1430.71 970.618 1444.26 970.68 1462.65L970.502 1479.53L954.32 1482.09L954.258 1520.98L970.441 1518.42L970.566 1612.48L1016.58 1605.19L1016.46 1511.13ZM1101.1 1506.01C1104.04 1491.81 1115.05 1482.81 1128.45 1480.69C1140.84 1478.73 1152.24 1485.22 1154.45 1497.56L1101.1 1506.01ZM1197.34 1513.06C1197.41 1467.69 1171.26 1443.32 1126.26 1450.45C1084.03 1457.14 1054.53 1488.51 1054.55 1532.83C1054.56 1578.7 1086.47 1598.53 1129.45 1591.72C1144.37 1589.36 1159.23 1583.38 1170.97 1574C1182.95 1564.59 1192.06 1551.74 1195.48 1535.65L1151.23 1542.66C1146.27 1552.25 1139.2 1556.74 1129.34 1558.3C1110.38 1561.31 1100.43 1552.52 1100.5 1533.32L1197.35 1517.99L1197.34 1513.06ZM1319.58 1428.39C1306.23 1424.28 1291.46 1424.29 1276.79 1426.61C1248.47 1431.09 1219.61 1450.18 1219.6 1482.84C1219.75 1506.66 1234.02 1511.66 1248.52 1513.25C1262.78 1514.88 1277.27 1513.1 1277.36 1523.46C1277.21 1530.74 1268.8 1534.92 1262.99 1535.84C1251.61 1537.64 1235.9 1533.39 1226.52 1528.14L1209.86 1563.7C1225.54 1571.06 1243.58 1573.65 1262.03 1570.72C1292.12 1565.96 1323.26 1546.51 1323.41 1511.5C1323.4 1486.88 1307.13 1479.08 1285.72 1478.07C1279.2 1477.81 1264.84 1478.79 1264.95 1469.7C1264.92 1462.96 1273.92 1459.2 1279.23 1458.36C1287.07 1457.12 1297.08 1458.13 1304 1460.92L1319.58 1428.39ZM1398.19 1450.67L1424.24 1446.54L1424.3 1407.65L1398.26 1411.78L1398.41 1371.84L1352.39 1379.13L1352.24 1419.07L1337.32 1421.43L1337.26 1460.32L1352.18 1457.95L1352.3 1552.02L1398.32 1544.73L1398.19 1450.67ZM1485.07 1398.03L1439.05 1405.32L1439.12 1538.27L1485.14 1530.98L1485.07 1398.03ZM1462.23 1324.15C1448.07 1326.39 1436.25 1340.18 1436.22 1354.7C1436.44 1369.18 1447.89 1379.29 1462.05 1377.05C1476.21 1374.81 1488.02 1361.01 1487.8 1346.53C1487.84 1332.01 1476.38 1321.91 1462.23 1324.15ZM1547.97 1388.07L1496.39 1396.23L1564.47 1518.42L1593.8 1513.77L1661.5 1370.08L1609.92 1378.25L1579.24 1451.28L1547.97 1388.07ZM1740.74 1394.08C1759.45 1391.12 1770.42 1403.12 1770.41 1419.45C1770.24 1436.32 1759.34 1451.01 1740.63 1453.97C1721.92 1456.93 1711.07 1445.69 1711.25 1428.82C1711.25 1412.49 1722.03 1397.04 1740.74 1394.08ZM1814.74 1345.81L1768.72 1353.1L1768.7 1366.06C1759.06 1355.93 1743.51 1352.69 1728.59 1355.05C1690.16 1361.14 1663.6 1398 1663.67 1436.09C1663.49 1474.22 1690.57 1502.85 1729.01 1496.76C1744.18 1494.36 1760.2 1485.86 1768.27 1471.36L1768.77 1471.28L1768.78 1486.06L1814.8 1478.77L1814.74 1345.81ZM1891.21 1251.54L1845.19 1258.83L1845.3 1473.94L1891.32 1466.65L1891.21 1251.54Z" fill="#C81753"/>
</svg>
